<svg xmlns="http://www.w3.org/2000/svg" viewBox="0 0 282 282" width="282" height="282" preserveAspectRatio="xMidYMid meet" style="width: 100%; height: 100%; transform: translate3d(0px, 0px, 0px); content-visibility: visible;"><defs><clipPath id="__lottie_element_32"><rect width="282" height="282" x="0" y="0"></rect></clipPath><mask id="__lottie_element_36" mask-type="alpha"><g style="display: block;" transform="matrix(1,0,0,1,140,142)" opacity="1"><g opacity="1" transform="matrix(1,0,0,1,0,0)"><path stroke-linecap="butt" stroke-linejoin="miter" fill-opacity="0" stroke-miterlimit="4" stroke="rgb(213,0,255)" stroke-opacity="1" stroke-width="12" d=" M-3,-81 C-3,-81 20,-73.5 21,-57.5"></path></g></g></mask><mask id="__lottie_element_42" mask-type="alpha"><g style="display: block;" transform="matrix(1,0,0,1,140,142)" opacity="1"><g opacity="1" transform="matrix(1,0,0,1,0,0)"><path stroke-linecap="butt" stroke-linejoin="miter" fill-opacity="0" stroke-miterlimit="4" stroke="rgb(213,0,255)" stroke-opacity="1" stroke-width="49.273" d=" M-12.5,-95.5 C-12.5,-95.5 -65,-63 -27.5,-36.5 C10,-10 37,0 48.5,26.5 C59.26499938964844,51.30699920654297 56.5,77.5 5,85"></path></g></g></mask><mask id="__lottie_element_48" mask-type="alpha"><g transform="matrix(1,0,0,1,140,142)" opacity="1" style="display: block;"><g opacity="1" transform="matrix(1,0,0,1,-3.5,0)"><path stroke-linecap="butt" stroke-linejoin="miter" fill-opacity="0" stroke-miterlimit="4" stroke="rgb(213,0,255)" stroke-opacity="1" stroke-width="23" d=" M-55.5,-10 C-55.5,-10 -70.5270004272461,36.15399932861328 -36.5,55 C-4,73 24,58.5 24,58.5"></path></g></g></mask></defs><g clip-path="url(#__lottie_element_32)"><g mask="url(#__lottie_element_48)" style="display: block;"><g transform="matrix(1,0,0,1,112.0479965209961,177.8040008544922)" opacity="1"><g opacity="1" transform="matrix(1,0,0,1,0,0)"><path fill="rgb(255,255,255)" fill-opacity="1" d=" M38.08599853515625,18.719999313354492 C7.11299991607666,20.020000457763672 -19.11400032043457,7.333000183105469 -27.26799964904785,-15.868000030517578 C-28.77400016784668,-20.150999069213867 -29.56100082397461,-24.57699966430664 -29.72599983215332,-29.069000244140625 C-30.50200080871582,-29.6200008392334 -31.273000717163086,-29.816999435424805 -32.034000396728516,-29.722000122070312 C-45.874000549316406,-9.598999977111816 -39.8129997253418,15.373000144958496 -18.3799991607666,25.18400001525879 C-1.9290000200271606,32.715999603271484 21.78700065612793,30.604999542236328 38.78300094604492,21.155000686645508 C39.98699951171875,20.486000061035156 39.4640007019043,18.663000106811523 38.08599853515625,18.719999313354492"></path></g></g></g><g mask="url(#__lottie_element_42)" style="display: block;"><g transform="matrix(1,0,0,1,151.125,144.5919952392578)" opacity="1"><g opacity="1" transform="matrix(1,0,0,1,0,0)"><path fill="rgb(255,255,255)" fill-opacity="1" d=" M39.040000915527344,-5.367000102996826 C27.67300033569336,-15.111000061035156 13.961000442504883,-21.836999893188477 0.6119999885559082,-28.736000061035156 C-15.946999549865723,-37.29499816894531 -52.42499923706055,-54.40299987792969 -42.50400161743164,-78.77300262451172 C-42.3849983215332,-79.06500244140625 -42.680999755859375,-79.36000061035156 -42.96900177001953,-79.2239990234375 C-44.73400115966797,-78.39900207519531 -46.472999572753906,-77.36000061035156 -48.14899826049805,-76.16000366210938 C-48.30699920654297,-76.0459976196289 -48.46699905395508,-75.93099975585938 -48.63100051879883,-75.81500244140625 C-71.91200256347656,-59.084999084472656 -55.507999420166016,-34.6349983215332 -40.28499984741211,-18.957000732421875 C-27.23200035095215,-5.514999866485596 -11.135000228881836,5.290999889373779 2.763000011444092,18.10300064086914 C14.649999618530273,29.06399917602539 35.64500045776367,49.67900085449219 21.615999221801758,66.68000030517578 C15.942000389099121,73.55699920654297 7.816999912261963,74.82099914550781 -0.1340000033378601,77.19599914550781 C11.246999740600586,81.6449966430664 27.475000381469727,78.32099914550781 37.88800048828125,72.66999816894531 C51.20899963378906,65.43900299072266 59.736000061035156,50.48400115966797 60.22800064086914,35.43899917602539 C60.7869987487793,18.393999099731445 51.43199920654297,5.25600004196167 39.040000915527344,-5.367000102996826"></path></g></g></g><g mask="url(#__lottie_element_36)" style="display: block;"><g transform="matrix(1,0,0,1,152.18299865722656,70.91999816894531)" opacity="1"><g opacity="1" transform="matrix(1,0,0,1,0,0)"><path fill="rgb(255,255,255)" fill-opacity="1" d=" M5.876999855041504,5.2829999923706055 C5.876999855041504,5.2829999923706055 5.88100004196167,5.2779998779296875 5.88100004196167,5.2779998779296875 C5.886000156402588,5.289000034332275 5.890999794006348,5.300000190734863 5.896999835968018,5.311999797821045 C6.559000015258789,6.289000034332275 7.0929999351501465,7.257999897003174 7.465000152587891,8.20199966430664 C7.931000232696533,8.810999870300293 8.14799976348877,8.682000160217285 8.222000122070312,8.194999694824219 C8.175000190734863,6.689000129699707 8.039999961853027,5.300000190734863 7.802000045776367,4.057000160217285 C7.790999889373779,4.002999782562256 7.7829999923706055,3.9560000896453857 7.775000095367432,3.9140000343322754 C5.770999908447266,-6.1479997634887695 -2.046999931335449,-7.921999931335449 -7.265999794006348,-8.602999687194824 C-8.163999557495117,-8.720000267028809 -8.58899974822998,-7.538000106811523 -7.829999923706055,-7.046999931335449 C-2.934000015258789,-3.878000020980835 2.812999963760376,0.7839999794960022 5.876999855041504,5.2829999923706055"></path></g></g></g><g style="display: block;" transform="matrix(1.0167299509048462,0,0,1.0167299509048462,141.0167236328125,144.0167236328125)" opacity="1"><g opacity="1" transform="matrix(1,0,0,1,-1,-1)"><path stroke-linecap="butt" stroke-linejoin="miter" fill-opacity="0" stroke-miterlimit="4" stroke="rgb(255,255,255)" stroke-opacity="1" stroke-width="6" d=" M0,-119.53500366210938 C65.97136688232422,-119.53500366210938 119.53500366210938,-65.97136688232422 119.53500366210938,0 C119.53500366210938,65.97136688232422 65.97136688232422,119.53500366210938 0,119.53500366210938 C-65.97136688232422,119.53500366210938 -119.53500366210938,65.97136688232422 -119.53500366210938,0 C-119.53500366210938,-65.97136688232422 -65.97136688232422,-119.53500366210938 0,-119.53500366210938z"></path></g></g></g></svg>