<svg enable-background="new 0 0 370.4853516 211.0053711" height="211.005371" viewBox="0 0 370.4853516 211.0053711" width="370.485352" xmlns="http://www.w3.org/2000/svg"><path d="m0 0h370.485352v211.005371h-370.485352z" fill="none"/><path d="m72.8164062 160.152832c-.7172852 4.1923828-4.065918 8.9472656-9.6323242 12.9355469-9.8178711 7.0078125-22.7817383 9.0126953-28.9526367 4.4697266-6.1699219-4.5410156-3.1918945-13.8759766 6.5878906-20.8857422 9.0087891-6.4306641 20.6206055-8.6308594 27.2460938-5.4697266l12.7480469-79.8730469c1.3452148-8.8125 8.9243164-15.3227539 17.8388672-15.3227539h214.9902344c.5292969 0 .9003906.4287109.8271484.9521484l-8.4492188 59.6713867c-1.1923828 8.4228516-9.1279297 15.3134766-17.6337891 15.3134766h-198.571289c-7.0830078 0-13.0942383 5.1962891-14.1191406 12.2041016zm67.9467774-64.1289062h7.6416016l-.418457 1.8828125c-.6674805 3.0708008-4.5473633 5.6674805-8.4711914 5.6674805-2.7329102 0-4.4306641-1.2905273-4.4306641-3.3691406 0-2.0214844 1.4916992-4.1811524 5.6787109-4.1811524zm84.7270508-5.8300781.1035156.7138672h-15.2099609l.4521484-.9033203c1.7353516-3.4711914 4.7138672-5.4619141 8.1708984-5.4619141 3.5976563 0 5.9609375 2.0600586 6.4833985 5.6513672zm-120.2934571-3.3422852c0-.7324219.3061523-3.1201172 4.2431641-3.1201172 3.0771484 0 5.4106445 1.449707 6.137207 3.7470703l7.4536133-1.7163086c-1.3930664-4.8183594-6.5483398-7.8964844-13.3408203-7.8964844-7.9604492 0-13.1040039 4.0166016-13.1040039 10.2333984 0 4.1333008 2.3657227 6.8911133 7.0317383 8.1977539l4.6948242 1.4394531c1.6835938.4199219 3.4365234 1.0869141 3.4365234 2.7807617 0 1.581543-1.6074219 3.1821289-4.6801758 3.1821289-2.5068359 0-5.2495117-1.1503906-6.0737305-3.7001953l-8.5688477 1.7470703c1.4956055 5.0664062 6.7016602 8.0678711 14.0810547 8.0678711 8.3017578 0 13.6655273-3.9428711 13.6655273-10.0458984 0-4.3520508-2.3867188-6.9355469-7.980957-8.6381836l-3.7509766-1.1875c-2.2119139-.6806639-3.2441405-1.6630858-3.2441405-3.0908202zm51.4458008-5.2114258c-1.9619141-2.4692383-5.4467773-3.7744141-10.0766602-3.7744141-6.9013672 0-12.7705078 3.262207-15.5136719 8.5644531l7.6254883 1.8789062c1.3369141-2.5200195 3.7519531-3.9536133 6.7026367-3.9536133 1.7651367 0 3.1240234.5385742 3.9287109 1.5576172.7495117.9492188.9604492 2.2299805.609375 3.7036133l-.2978516 1.2910156h-8.2958984c-9.3632812 0-15.4130859 4.3837891-15.4130859 11.1694336 0 4.8452148 3.4291992 7.7368164 9.1728516 7.7368164 3.6020508 0 6.9023438-1.0517578 9.8085938-3.1279297l1.3652344-.9755859-.7700195 3.1679688h8.3188477l4.1943359-18.2363281c.855957-3.692871.3862304-6.8061523-1.3588868-9.0019531zm15.6357422 12.1079102c.8134766-4.9462891 4.6591797-8.394043 9.3535156-8.394043 3.4033203 0 5.7109375 1.8984375 6.1689453 5.0039062l8.5683594-1.5825195c-.7666016-6.5498047-6.0673828-10.909668-13.3642578-10.909668-9.4404297 0-17.6523438 6.909668-19.1020508 16.0722656-.6923828 4.4018555.2495117 8.2583008 2.7246094 11.1523438 2.6044922 3.0458984 6.6918945 4.7236328 11.5102539 4.7236328 7.3886719 0 13.8525391-4.3378906 16.6728516-11.1186523l-8.0039062-1.3515625c-1.5224609 3.1738281-4.2939453 4.9829102-7.6708984 4.9829102-2.2626953 0-4.1201172-.7661133-5.3691406-2.2148438-1.3388673-1.5522461-1.8671876-3.8120117-1.4882814-6.3637695zm57.6855469-11.5556641c-2.3974609-2.8305664-5.9277344-4.3266602-10.2080078-4.3266602-10.0820312 0-18.2832031 8.1459961-18.2832031 18.1582031 0 8.3774414 5.609375 13.7900391 14.2890625 13.7900391 6.7685547 0 12.3232422-3.1748047 15.3623047-8.7436523l-7.5332031-1.7216797c-1.7392578 2.4736328-4.1611328 3.7270508-7.2050781 3.7270508-4.1425781 0-6.6445312-2.421875-6.8632812-6.6450195l-.0341797-.65625h23.3994141c.8369139-5.6430664-.1699221-10.3305664-2.9238283-13.5820313zm62.2480469-1.0029297c-1.7080078-2.1435547-4.5263672-3.3237305-7.9384766-3.3237305-4.484375 0-8.1835938 1.7895508-10.9931641 5.3188477l-.6621094.8305664-.4033203-.9829102c-1.3486328-3.2832031-4.7314453-5.1665039-9.2822266-5.1665039-3.5849609 0-6.4384766 1.1425781-8.7255859 3.4926758l-1.5478516 1.590332.9433594-4.1469727h-8.7050781l-6.890625 30.0766602h8.6425781l3.4453125-14.8666992c1.2724609-5.3452148 4.359375-8.4082031 8.4697266-8.4082031 1.6279297 0 2.9365234.5639648 3.7841797 1.6308594.9482422 1.1943359 1.2167969 2.9477539.7548828 4.9370117l-3.8779297 16.7070312h8.7021484l3.5693359-15.5522461c1.4052734-4.9194336 4.4892578-7.7226562 8.4707031-7.7226562 1.5927734 0 2.8789062.5585938 3.71875 1.6157227.9521484 1.1982422 1.2207031 2.9570312.7578125 4.9521484l-3.8779297 16.7070312h8.640625l4.4423828-19.1103516c.7890627-3.4404296.2919923-6.4067382-1.4374998-8.5786132z" fill="#fff"/></svg>