<svg enable-background="new 0 0 170.1 72.7" viewBox="0 0 170.1 72.7" xmlns="http://www.w3.org/2000/svg"><g fill="#fff"><path d="m42.2 48.1c0 6.2 3.5 10.8 9.8 10.8 2.6-.1 5-.8 7.2-2.1v-5.8h-.9c-.3 3.7-2.2 6.9-6.3 6.9-5.6 0-6-5.8-6-9.9 0-4.8.8-9.8 6.5-9.8 4 0 5.3 2.7 5.8 6.2h.9v-5.4c-2.1-1-4.5-1.6-6.9-1.7-6.3 0-10.1 4.6-10.1 10.8z"/><path d="m65.2 66.8h-2.6v5.7h.8v-2.3h1.8c1.4 0 2.1-.5 2.1-1.7s-.6-1.7-2.1-1.7zm-.3 2.7h-1.5v-2h1.6c1.1 0 1.6.2 1.6 1s-.6 1-1.7 1z"/><path d="m74.3 66.8-2.7 5.7h.8l.8-1.6h2.9l.7 1.6h.8l-2.5-5.7zm-.7 3.4 1.2-2.4 1.1 2.4z"/><path d="m87.8 70.9c-.1-.7-.3-1-.9-1.1.6-.2 1.1-.8 1-1.4 0-1-.7-1.6-2-1.6h-3v5.7h.8v-2.4h2.1c.8 0 1.1.2 1.2 1v.9c0 .2 0 .4.1.6h.9c-.1-.2-.2-.5-.2-.7zm-2.3-1.5h-1.9v-1.8h1.8c1.1 0 1.6.2 1.6.9s-.4.9-1.5.9z"/><path d="m94.3 66.8h.8v5.7h-.8z"/><path d="m104 69.4-1.3-.2c-.7-.1-1-.3-1-.8s.5-.9 1.5-.9 1.5.3 1.5 1.1h.8c0-1.2-.8-1.8-2.3-1.8s-2.4.7-2.4 1.7c0 .9.5 1.3 1.6 1.5l1.4.3c.7.1 1 .3 1 .8s-.6 1-1.6 1c-1.2 0-1.8-.4-1.8-1.3h-.8c0 1.4.9 2.1 2.6 2.1s2.5-.7 2.5-1.8-.5-1.5-1.7-1.7z"/><path d="m13.1 54-6.3-16.3h-6.8v.7h2.8v19.5h-2.8v.7h6.9v-.7h-3.2v-19l7.9 20.1h.4l8-20.1h.1v19h-3.3v.7h9.3v-.7h-2.9v-19.5h2.9v-.7h-6.5z"/><path d="m29.8 38.4h3.2v19.5h-3.2v.7h9.7v-.7h-3.2v-19.5h3.2v-.7h-9.7z"/><path d="m68.7 48.3h9.1v9.7h-2.6v.7h8.7v-.7h-2.8v-19.6h2.8v-.7h-8.7v.7h2.6v9.1h-9.1v-9.1h2.6v-.7h-8.7v.7h2.8v19.5h-2.8v.7h8.7v-.7h-2.6z"/><path d="m119.2 57.9h-4.9v-19.5h2.7v-.7h-8.8v.7h2.8v19.5h-2.8v.7h17.8v-7.8h-.7c-.9 5.9-2.8 7.1-6.1 7.1z"/><path d="m156 38.4h2.7v-.7h-8.8v.7h2.8v19.5h-2.8v.7h8.7v-.7h-2.6z"/><path d="m167.6 57.9-7-13.2 3.8-6.3h2.6v-.7h-6.3v.7h2.6l-5.2 8.6 5.5 10.9h-2.3v.7h8.7v-.7z"/><path d="m96.3 37.3h-.6l-6.9 20.6h-2.5v.7h6.6v-.7h-3.1l1.9-5.7h6l1.7 5.7h-3v.7h9.4v-.7h-2.7zm-4.4 14 2.8-8.4h.1l2.6 8.4z"/><path d="m138.2 37.3h-.6l-6.9 20.6h-2.5v.7h6.6v-.7h-3.1l1.9-5.7h6l1.7 5.7h-3v.7h9.4v-.7h-2.7zm-4.4 14 2.8-8.4h.1l2.6 8.4z"/><path d="m85 23c6.3 0 11.5-5.1 11.5-11.4s-5.1-11.5-11.4-11.5-11.5 5.1-11.5 11.4c-.1 6.3 5.1 11.5 11.4 11.5zm0-1.2 3.4-11.2.9 2.9h5.9c-1 4.9-5.3 8.3-10.2 8.3zm0-20.7c5.7 0 10.4 4.6 10.4 10.3 0 .3 0 .6-.1.9h-5.2l-1.7-5.8-3.2 10.5-2.1-15.7c.6-.1 1.3-.1 1.9-.2zm-10.3 10.4c0-4.8 3.3-9 8-10.1l-2.7 11h-5.2c-.1-.3-.1-.6-.1-.9zm6.2 2 1.7-7 2 15.3c-4.7-.2-8.7-3.6-9.7-8.2z"/></g></svg>